<?xml version="1.0" standalone="no"?>
<svg viewBox="0 0 200 200" xmlns="http://www.w3.org/2000/svg">
  <path fill="#6FAF64" d="M21.6,-39.9C30.1,-32.6,40.5,-31,51.5,-25.3C62.5,-19.6,74.1,-9.8,78.4,2.5C82.6,14.7,79.5,29.4,70.2,38.1C60.9,46.7,45.4,49.3,32.7,49.2C20,49.1,10,46.2,-0.2,46.5C-10.3,46.8,-20.6,50.2,-33,50.1C-45.4,50,-59.8,46.4,-67.9,37.5C-76.1,28.6,-77.9,14.3,-74.4,2C-71,-10.3,-62.2,-20.6,-55.1,-31.4C-48.1,-42.2,-42.8,-53.6,-33.9,-60.7C-25,-67.8,-12.5,-70.6,-3,-65.5C6.6,-60.3,13.2,-47.2,21.6,-39.9Z" transform="translate(100 100)" />
</svg>
